<svg width="14" height="14" viewBox="0 0 14 14" fill="none" xmlns="http://www.w3.org/2000/svg">
<path d="M3.23167 11.3867C2.87583 11.3867 2.54333 11.2642 2.30417 11.0367C2.00083 10.7508 1.855 10.3192 1.9075 9.8525L2.12333 7.9625C2.16417 7.60667 2.38 7.13417 2.63083 6.8775L7.42 1.80833C8.61583 0.542501 9.86417 0.507501 11.13 1.70333C12.3958 2.89917 12.4308 4.1475 11.235 5.41333L6.44583 10.4825C6.20083 10.745 5.74583 10.99 5.39 11.0483L3.51167 11.3692C3.4125 11.375 3.325 11.3867 3.23167 11.3867ZM9.2925 1.6975C8.84333 1.6975 8.4525 1.9775 8.05583 2.3975L3.26667 7.4725C3.15 7.595 3.01583 7.88667 2.9925 8.05584L2.77667 9.94583C2.75333 10.1383 2.8 10.2958 2.905 10.395C3.01 10.4942 3.1675 10.5292 3.36 10.5L5.23833 10.1792C5.4075 10.15 5.6875 9.99833 5.80417 9.87584L10.5933 4.80667C11.3167 4.03667 11.5792 3.325 10.5233 2.33333C10.0567 1.88417 9.65417 1.6975 9.2925 1.6975Z" fill="#808080" fill-opacity="0.87"/>
<path d="M10.115 6.3875C10.1033 6.3875 10.0858 6.3875 10.0742 6.3875C8.25417 6.20667 6.79 4.82417 6.51 3.01583C6.475 2.77667 6.63833 2.555 6.8775 2.51417C7.11667 2.47917 7.33833 2.6425 7.37917 2.88167C7.60083 4.29333 8.74417 5.37833 10.1675 5.51833C10.4067 5.54167 10.5817 5.7575 10.5583 5.99667C10.5292 6.21833 10.3367 6.3875 10.115 6.3875Z" fill="#808080" fill-opacity="0.87"/>
<path d="M12.25 13.2708H1.75C1.51083 13.2708 1.3125 13.0725 1.3125 12.8333C1.3125 12.5942 1.51083 12.3958 1.75 12.3958H12.25C12.4892 12.3958 12.6875 12.5942 12.6875 12.8333C12.6875 13.0725 12.4892 13.2708 12.25 13.2708Z" fill="#808080" fill-opacity="0.87"/>
</svg>
